REM DIRINDEX 1\2,1\3,1\4
REM DIRNAME cjc151,folder01,folder02,folder03
TITLE ""
FILE "091 091_TOEFL_3900.mp3" MP3
  TRACK 01 AUDIO
    TITLE "2:cjc151_3957"
    INDEX 01 00:00:00
  TRACK 02 AUDIO
    TITLE "0:"
    INDEX 01 00:01:09
  TRACK 03 AUDIO
    TITLE "3:cjc151_3958"
    INDEX 01 00:02:61
  TRACK 04 AUDIO
    TITLE "0:"
    INDEX 01 00:06:24
  TRACK 05 AUDIO
    TITLE "2:cjc151_3959"
    INDEX 01 00:08:01
  TRACK 06 AUDIO
    TITLE "0:"
    INDEX 01 00:09:02
  TRACK 07 AUDIO
    TITLE "3:cjc151_3960"
    INDEX 01 00:10:57
  TRACK 08 AUDIO
    TITLE "0:"
    INDEX 01 00:15:46
  TRACK 09 AUDIO
    TITLE "2:cjc151_3961"
    INDEX 01 00:17:29
  TRACK 10 AUDIO
    TITLE "0:"
    INDEX 01 00:18:41
  TRACK 11 AUDIO
    TITLE "3:cjc151_3962"
    INDEX 01 00:20:20
  TRACK 12 AUDIO
    TITLE "0:"
    INDEX 01 00:23:50
  TRACK 13 AUDIO
    TITLE "2:cjc151_3963"
    INDEX 01 00:25:29
  TRACK 14 AUDIO
    TITLE "0:"
    INDEX 01 00:26:44
  TRACK 15 AUDIO
    TITLE "3:cjc151_3964"
    INDEX 01 00:28:21
  TRACK 16 AUDIO
    TITLE "0:"
    INDEX 01 00:31:55
  TRACK 17 AUDIO
    TITLE "2:cjc151_3965"
    INDEX 01 00:33:34
  TRACK 18 AUDIO
    TITLE "0:"
    INDEX 01 00:34:28
  TRACK 19 AUDIO
    TITLE "3:cjc151_3966"
    INDEX 01 00:36:05
  TRACK 20 AUDIO
    TITLE "0:"
    INDEX 01 00:39:21
  TRACK 21 AUDIO
    TITLE "2:cjc151_3967"
    INDEX 01 00:41:00
  TRACK 22 AUDIO
    TITLE "0:"
    INDEX 01 00:42:08
  TRACK 23 AUDIO
    TITLE "3:cjc151_3968"
    INDEX 01 00:43:60
  TRACK 24 AUDIO
    TITLE "0:"
    INDEX 01 00:48:06
  TRACK 25 AUDIO
    TITLE "2:cjc151_3969"
    INDEX 01 00:49:61
  TRACK 26 AUDIO
    TITLE "0:"
    INDEX 01 00:50:62
  TRACK 27 AUDIO
    TITLE "3:cjc151_3970"
    INDEX 01 00:52:41
  TRACK 28 AUDIO
    TITLE "0:"
    INDEX 01 00:56:04
  TRACK 29 AUDIO
    TITLE "2:cjc151_3971"
    INDEX 01 00:57:60
  TRACK 30 AUDIO
    TITLE "0:"
    INDEX 01 00:58:69
  TRACK 31 AUDIO
    TITLE "3:cjc151_3972"
    INDEX 01 01:00:49
  TRACK 32 AUDIO
    TITLE "0:"
    INDEX 01 01:05:13
  TRACK 33 AUDIO
    TITLE "2:cjc151_3973"
    INDEX 01 01:06:67
  TRACK 34 AUDIO
    TITLE "0:"
    INDEX 01 01:07:72
  TRACK 35 AUDIO
    TITLE "3:cjc151_3974"
    INDEX 01 01:09:52
  TRACK 36 AUDIO
    TITLE "0:"
    INDEX 01 01:13:16
  TRACK 37 AUDIO
    TITLE "2:cjc151_3975"
    INDEX 01 01:14:68
  TRACK 38 AUDIO
    TITLE "0:"
    INDEX 01 01:15:68
  TRACK 39 AUDIO
    TITLE "3:cjc151_3976"
    INDEX 01 01:17:51
  TRACK 40 AUDIO
    TITLE "0:"
    INDEX 01 01:21:14
  TRACK 41 AUDIO
    TITLE "2:cjc151_3977"
    INDEX 01 01:22:66
  TRACK 42 AUDIO
    TITLE "0:"
    INDEX 01 01:24:14
  TRACK 43 AUDIO
    TITLE "3:cjc151_3978"
    INDEX 01 01:25:66
  TRACK 44 AUDIO
    TITLE "0:"
    INDEX 01 01:29:62
  TRACK 45 AUDIO
    TITLE "2:cjc151_3979"
    INDEX 01 01:31:38
  TRACK 46 AUDIO
    TITLE "0:"
    INDEX 01 01:32:51
  TRACK 47 AUDIO
    TITLE "3:cjc151_3980"
    INDEX 01 01:34:28
  TRACK 48 AUDIO
    TITLE "0:"
    INDEX 01 01:37:69
  TRACK 49 AUDIO
    TITLE "2:cjc151_3981"
    INDEX 01 01:39:49
  TRACK 50 AUDIO
    TITLE "0:"
    INDEX 01 01:40:66
  TRACK 51 AUDIO
    TITLE "3:cjc151_3982"
    INDEX 01 01:42:47
  TRACK 52 AUDIO
    TITLE "0:"
    INDEX 01 01:46:33
  TRACK 53 AUDIO
    TITLE "2:cjc151_3983"
    INDEX 01 01:48:14
  TRACK 54 AUDIO
    TITLE "0:"
    INDEX 01 01:49:45
  TRACK 55 AUDIO
    TITLE "3:cjc151_3984"
    INDEX 01 01:51:23
  TRACK 56 AUDIO
    TITLE "0:"
    INDEX 01 01:54:44
  TRACK 57 AUDIO
    TITLE "2:cjc151_3985"
    INDEX 01 01:56:24
  TRACK 58 AUDIO
    TITLE "0:"
    INDEX 01 01:57:17
  TRACK 59 AUDIO
    TITLE "3:cjc151_3986"
    INDEX 01 01:59:03
  TRACK 60 AUDIO
    TITLE "0:"
    INDEX 01 02:02:30
  TRACK 61 AUDIO
    TITLE "2:cjc151_3987"
    INDEX 01 02:04:17
  TRACK 62 AUDIO
    TITLE "0:"
    INDEX 01 02:05:29
  TRACK 63 AUDIO
    TITLE "3:cjc151_3988"
    INDEX 01 02:07:08
  TRACK 64 AUDIO
    TITLE "0:"
    INDEX 01 02:10:28
  TRACK 65 AUDIO
    TITLE "2:cjc151_3989"
    INDEX 01 02:12:07
  TRACK 66 AUDIO
    TITLE "0:"
    INDEX 01 02:13:09
  TRACK 67 AUDIO
    TITLE "3:cjc151_3990"
    INDEX 01 02:14:63
  TRACK 68 AUDIO
    TITLE "0:"
    INDEX 01 02:18:35
  TRACK 69 AUDIO
    TITLE "2:cjc151_3991"
    INDEX 01 02:20:16
  TRACK 70 AUDIO
    TITLE "0:"
    INDEX 01 02:21:06
  TRACK 71 AUDIO
    TITLE "3:cjc151_3992"
    INDEX 01 02:22:58
  TRACK 72 AUDIO
    TITLE "0:"
    INDEX 01 02:26:39
  TRACK 73 AUDIO
    TITLE "2:cjc151_3993"
    INDEX 01 02:28:18
  TRACK 74 AUDIO
    TITLE "0:"
    INDEX 01 02:29:29
  TRACK 75 AUDIO
    TITLE "3:cjc151_3994"
    INDEX 01 02:31:06
  TRACK 76 AUDIO
    TITLE "0:"
    INDEX 01 02:34:48
  TRACK 77 AUDIO
    TITLE "2:cjc151_3995"
    INDEX 01 02:36:25
  TRACK 78 AUDIO
    TITLE "0:"
    INDEX 01 02:37:27
  TRACK 79 AUDIO
    TITLE "3:cjc151_3996"
    INDEX 01 02:39:06
  TRACK 80 AUDIO
    TITLE "0:"
    INDEX 01 02:42:20
  TRACK 81 AUDIO
    TITLE "2:cjc151_3997"
    INDEX 01 02:44:03
  TRACK 82 AUDIO
    TITLE "0:"
    INDEX 01 02:45:14
  TRACK 83 AUDIO
    TITLE "3:cjc151_3998"
    INDEX 01 02:46:61
  TRACK 84 AUDIO
    TITLE "0:"
    INDEX 01 02:50:51
  TRACK 85 AUDIO
    TITLE "2:cjc151_3999"
    INDEX 01 02:52:30
  TRACK 86 AUDIO
    TITLE "0:"
    INDEX 01 02:53:37
  TRACK 87 AUDIO
    TITLE "3:cjc151_4000"
    INDEX 01 02:55:19
  TRACK 88 AUDIO
    TITLE "0:"
    INDEX 01 02:58:56
